<svg width="220" height="92" viewBox="0 0 220 92" fill="currentColor" xmlns="http://www.w3.org/2000/svg">
<path d="M10.8633 0.866671C13.2604 0.866671 15.339 1.12884 17.0993 1.65319C18.8596 2.17753 20.3203 2.88915 21.4813 3.78803C22.6424 4.68691 23.5038 5.7356 24.0656 6.9341C24.6274 8.09515 24.9083 9.34983 24.9083 10.6982C24.9083 11.7843 24.7398 12.7581 24.4027 13.6195C24.1031 14.4435 23.6911 15.1925 23.1667 15.8667C22.6799 16.5034 22.0993 17.0465 21.4252 17.4959C20.751 17.9454 20.0768 18.3199 19.4027 18.6195C17.7922 19.3311 15.9757 19.7806 13.9532 19.9678C15.6012 20.1551 17.0993 20.5484 18.4476 21.1476C19.6087 21.672 20.6948 22.4398 21.7061 23.451C22.7173 24.4622 23.3166 25.8293 23.5038 27.5521L24.6274 37.3836C24.7023 38.0952 24.8709 38.6008 25.133 38.9005C25.3952 39.2001 25.6948 39.3499 26.0319 39.3499C26.2192 39.3499 26.4064 39.2937 26.5937 39.1814C26.8184 39.0315 27.0244 38.863 27.2117 38.6757C27.399 38.4885 27.5675 38.245 27.7173 37.9454L28.2791 38.5072C28.0544 38.9941 27.736 39.4248 27.3241 39.7993C26.987 40.099 26.5375 40.3799 25.9757 40.642C25.4514 40.9042 24.8147 41.0353 24.0656 41.0353C22.7922 41.0353 21.7435 40.6795 20.9195 39.9679C20.133 39.2188 19.6836 38.3574 19.5712 37.3836L18.4476 27.5521C18.2978 26.2787 18.0544 25.2113 17.7173 24.3499C17.3802 23.451 16.912 22.7206 16.3128 22.1589C15.751 21.5971 15.0207 21.1851 14.1218 20.9229C13.2229 20.6607 12.1368 20.5296 10.8633 20.5296H8.61615V38.7881L11.9869 39.6308V40.1926H0.470066V39.6308L3.84086 38.7881V2.27117L0.470066 1.42847V0.866671H10.8633ZM19.5712 10.6982C19.5712 7.88916 18.8222 5.7356 17.324 4.23746C15.8259 2.73934 13.6723 1.99027 10.8633 1.99027H8.61615V19.406H10.8633C13.6723 19.406 15.8259 18.657 17.324 17.1588C18.8222 15.6607 19.5712 13.5071 19.5712 10.6982ZM50.7401 39.069C50.7401 37.496 51.0584 36.0353 51.6952 34.687C52.3319 33.3386 53.1371 32.1776 54.1109 31.2038H54.6727C54.5978 31.6907 54.5416 32.1963 54.5041 32.7207C54.4667 33.1701 54.4292 33.657 54.3918 34.1813C54.3918 34.7057 54.3918 35.2113 54.3918 35.6982C54.3918 36.4098 54.3918 37.0465 54.3918 37.6083C54.4292 38.1327 54.4667 38.6008 54.5041 39.0128C54.5416 39.4623 54.5978 39.8555 54.6727 40.1926H31.358V39.6308L34.7288 38.7881V2.27117L31.358 1.42847V0.866671H54.1109C54.036 1.20375 53.9798 1.59701 53.9423 2.04645C53.9049 2.45844 53.8674 2.94533 53.83 3.50713C53.83 4.03147 53.83 4.64945 53.83 5.36106C53.83 5.88541 53.83 6.40976 53.83 6.9341C53.8674 7.42099 53.9049 7.88916 53.9423 8.3386C53.9798 8.86294 54.036 9.36856 54.1109 9.85545H53.5491C52.5753 8.88167 51.7701 7.72062 51.1334 6.3723C50.4966 5.02398 50.1783 3.56331 50.1783 1.99027H39.5041V18.8442H44.8412L47.3693 13.788H47.9311V25.024H47.3693L44.8412 19.9678H39.5041V39.069H50.7401ZM69.5538 0.866671C72.0257 0.866671 74.2916 1.31611 76.3515 2.21499C78.4489 3.11387 80.2654 4.40601 81.801 6.0914C83.3366 7.7768 84.5351 9.83673 85.3965 12.2712C86.2579 14.7057 86.6886 17.4585 86.6886 20.5296C86.6886 23.6383 86.2579 26.4098 85.3965 28.8443C84.5351 31.2787 83.3366 33.3386 81.801 35.024C80.2654 36.7094 78.4489 38.0016 76.3515 38.9005C74.2916 39.7619 72.0257 40.1926 69.5538 40.1926H59.7223V39.6308L63.0931 38.7881V2.27117L59.7223 1.42847V0.866671H69.5538ZM67.8684 1.99027V39.069H69.5538C71.1643 39.069 72.6811 38.7319 74.1043 38.0578C75.565 37.3461 76.8197 36.2413 77.8684 34.7431C78.9545 33.245 79.7972 31.3349 80.3965 29.0128C81.0332 26.6532 81.3516 23.8255 81.3516 20.5296C81.3516 17.2337 81.0332 14.4248 80.3965 12.1027C79.7972 9.7431 78.9545 7.81425 77.8684 6.31612C76.8197 4.81799 75.565 3.73185 74.1043 3.05769C72.6811 2.34608 71.1643 1.99027 69.5538 1.99027H67.8684ZM110.541 39.069C110.541 37.496 110.859 36.0353 111.496 34.687C112.133 33.3386 112.938 32.1776 113.912 31.2038H114.474C114.399 31.6907 114.342 32.1963 114.305 32.7207C114.268 33.1701 114.23 33.657 114.193 34.1813C114.193 34.7057 114.193 35.2113 114.193 35.6982C114.193 36.4098 114.193 37.0465 114.193 37.6083C114.23 38.1327 114.268 38.6008 114.305 39.0128C114.342 39.4623 114.399 39.8555 114.474 40.1926H91.1589V39.6308L94.5297 38.7881V2.27117L91.1589 1.42847V0.866671H113.912C113.837 1.20375 113.781 1.59701 113.743 2.04645C113.706 2.45844 113.668 2.94533 113.631 3.50713C113.631 4.03147 113.631 4.64945 113.631 5.36106C113.631 5.88541 113.631 6.40976 113.631 6.9341C113.668 7.42099 113.706 7.88916 113.743 8.3386C113.781 8.86294 113.837 9.36856 113.912 9.85545H113.35C112.376 8.88167 111.571 7.72062 110.934 6.3723C110.298 5.02398 109.979 3.56331 109.979 1.99027H99.305V18.8442H104.642L107.17 13.788H107.732V25.024H107.17L104.642 19.9678H99.305V39.069H110.541ZM123.175 8.17006C123.175 9.70564 123.624 11.0352 124.523 12.1588C125.422 13.245 126.546 14.2562 127.894 15.1925C129.242 16.1289 130.703 17.0465 132.276 17.9454C133.886 18.8442 135.366 19.8742 136.714 21.0353C138.063 22.1589 139.186 23.4884 140.085 25.024C140.984 26.5596 141.433 28.4323 141.433 30.642C141.433 32.1027 141.171 33.4697 140.647 34.7431C140.122 36.0166 139.373 37.1214 138.4 38.0578C137.463 38.9941 136.34 39.7244 135.029 40.2488C133.718 40.7731 132.295 41.0353 130.759 41.0353C129.336 41.0353 128.119 40.8855 127.107 40.5859C126.096 40.3237 125.254 40.0053 124.579 39.6308C123.793 39.2188 123.137 38.7506 122.613 38.2263C122.313 38.7881 121.901 39.3124 121.377 39.7993C120.89 40.2862 120.366 40.6046 119.804 40.7544H118.961C118.999 40.23 119.036 39.6683 119.074 39.069C119.111 38.5821 119.149 38.039 119.186 37.4398C119.224 36.8405 119.242 36.26 119.242 35.6982C119.242 35.0615 119.224 34.4435 119.186 33.8443C119.149 33.2076 119.111 32.627 119.074 32.1027C119.036 31.5034 118.999 30.9229 118.961 30.3611H119.804C120.665 33.4697 121.901 35.848 123.512 37.496C125.16 39.1065 127.388 39.9117 130.197 39.9117C132.445 39.9117 134.261 39.2001 135.647 37.7769C137.07 36.3162 137.782 34.3124 137.782 31.7656C137.782 30.23 137.332 28.9192 136.433 27.833C135.534 26.7094 134.411 25.6795 133.063 24.7431C131.714 23.8068 130.235 22.8892 128.624 21.9903C127.051 21.0914 125.591 20.0802 124.242 18.9566C122.894 17.7955 121.77 16.4472 120.871 14.9116C119.973 13.3761 119.523 11.5034 119.523 9.29366C119.523 8.02024 119.767 6.82174 120.253 5.69814C120.74 4.57454 121.415 3.60076 122.276 2.77679C123.137 1.91536 124.149 1.24121 125.31 0.754313C126.471 0.26742 127.725 0.0239734 129.074 0.0239734C130.197 0.0239734 131.19 0.173787 132.051 0.473413C132.913 0.773038 133.643 1.09139 134.242 1.42847C134.916 1.84046 135.534 2.30862 136.096 2.83297C136.396 2.27117 136.789 1.74682 137.276 1.25993C137.8 0.773039 138.343 0.454686 138.905 0.304873H139.748C139.673 0.866671 139.617 1.42847 139.579 1.99027C139.542 2.51462 139.504 3.07641 139.467 3.67567C139.467 4.23746 139.467 4.79926 139.467 5.36106C139.467 5.99777 139.467 6.63447 139.467 7.27118C139.504 7.87043 139.542 8.43223 139.579 8.95657C139.617 9.55583 139.673 10.1364 139.748 10.6982H138.905C138.044 7.58953 136.845 5.22998 135.31 3.61949C133.774 1.97154 131.883 1.14757 129.636 1.14757C127.8 1.14757 126.265 1.78428 125.029 3.05769C123.793 4.3311 123.175 6.03522 123.175 8.17006ZM153.784 38.7881L157.155 39.6308V40.1926H145.638V39.6308L149.009 38.7881V2.27117L145.638 1.42847V0.866671H157.155V1.42847L153.784 2.27117V38.7881ZM181.87 22.215H176.252V21.0914H186.645V25.3049C186.645 27.8517 186.308 30.0989 185.634 32.0465C184.997 33.9941 184.136 35.642 183.049 36.9903C182.001 38.3012 180.784 39.3124 179.398 40.0241C178.012 40.6982 176.589 41.0353 175.128 41.0353C173.592 41.0353 172.057 40.6233 170.521 39.7993C168.986 38.9379 167.6 37.6645 166.364 35.9791C165.128 34.2563 164.117 32.1214 163.33 29.5746C162.581 26.9903 162.207 23.9753 162.207 20.5296C162.207 17.0839 162.581 14.0877 163.33 11.5408C164.117 8.95657 165.128 6.82174 166.364 5.13634C167.637 3.41349 169.061 2.14008 170.634 1.31611C172.207 0.454686 173.798 0.0239734 175.409 0.0239734C176.308 0.0239734 177.113 0.173787 177.825 0.473413C178.574 0.773038 179.21 1.09139 179.735 1.42847C180.334 1.84046 180.858 2.30862 181.308 2.83297C181.607 2.27117 182.001 1.74682 182.488 1.25993C183.012 0.773039 183.555 0.454686 184.117 0.304873H184.96C184.885 0.866671 184.828 1.42847 184.791 1.99027C184.754 2.51462 184.716 3.07641 184.679 3.67567C184.679 4.23746 184.679 4.79926 184.679 5.36106C184.679 5.99777 184.679 6.63447 184.679 7.27118C184.716 7.87043 184.754 8.43223 184.791 8.95657C184.828 9.55583 184.885 10.1364 184.96 10.6982H184.117C183.255 7.58953 182.094 5.22998 180.634 3.61949C179.21 1.97154 177.656 1.14757 175.971 1.14757C174.922 1.14757 173.892 1.4472 172.881 2.04645C171.87 2.6457 170.971 3.69439 170.184 5.19252C169.398 6.6532 168.761 8.63822 168.274 11.1476C167.787 13.6195 167.544 16.7469 167.544 20.5296C167.544 24.3873 167.769 27.5896 168.218 30.1364C168.705 32.6458 169.323 34.6495 170.072 36.1476C170.821 37.6458 171.626 38.6945 172.488 39.2937C173.386 39.893 174.267 40.1926 175.128 40.1926C175.952 40.1926 176.776 39.9679 177.6 39.5184C178.424 39.0315 179.136 38.2263 179.735 37.1027C180.372 35.9417 180.877 34.4061 181.252 32.496C181.664 30.5858 181.87 28.1888 181.87 25.3049V22.215ZM215.038 2.83297L211.386 1.42847V0.866671H219.813V1.42847L216.161 2.83297V40.7544H215.319L196.217 5.64196V38.2263L199.869 39.6308V40.1926H191.442V39.6308L195.094 38.2263V2.55207L191.442 1.42847V0.866671H199.026L215.038 30.3611V2.83297ZM33.6063 70.9678V89.7881L36.9771 90.6308V91.1926H25.4602V90.6308L28.831 89.7881V53.2712L25.4602 52.4285V51.8667H36.9771V52.4285L33.6063 53.2712V69.8442H45.1232V53.2712L41.7524 52.4285V51.8667H53.2693V52.4285L49.8985 53.2712V89.7881L53.2693 90.6308V91.1926H41.7524V90.6308L45.1232 89.7881V70.9678H33.6063ZM77.7053 90.069C77.7053 88.496 78.0237 87.0353 78.6604 85.687C79.2971 84.3386 80.1024 83.1776 81.0761 82.2038H81.6379C81.563 82.6907 81.5068 83.1963 81.4694 83.7207C81.4319 84.1701 81.3945 84.657 81.357 85.1813C81.357 85.7057 81.357 86.2113 81.357 86.6982C81.357 87.4098 81.357 88.0465 81.357 88.6083C81.3945 89.1327 81.4319 89.6008 81.4694 90.0128C81.5068 90.4623 81.563 90.8555 81.6379 91.1926H58.3233V90.6308L61.6941 89.7881V53.2712L58.3233 52.4285V51.8667H81.0761C81.0012 52.2038 80.9451 52.597 80.9076 53.0465C80.8701 53.4584 80.8327 53.9453 80.7952 54.5071C80.7952 55.0315 80.7952 55.6495 80.7952 56.3611C80.7952 56.8854 80.7952 57.4098 80.7952 57.9341C80.8327 58.421 80.8701 58.8892 80.9076 59.3386C80.9451 59.8629 81.0012 60.3686 81.0761 60.8555H80.5143C79.5406 59.8817 78.7353 58.7206 78.0986 57.3723C77.4619 56.024 77.1435 54.5633 77.1435 52.9903H66.4694V69.8442H71.8065L74.3345 64.788H74.8963V76.024H74.3345L71.8065 70.9678H66.4694V90.069H77.7053ZM102.98 79.6757H91.4628L88.6538 89.2263L92.3055 90.6308V91.1926H83.8785V90.6308L87.5302 89.2263L98.4853 51.024H99.328L111.126 89.7881L114.497 90.6308V91.1926H102.699V90.6308L106.07 89.7881L102.98 79.6757ZM91.7437 78.6083H102.643L97.0246 60.0128L91.7437 78.6083ZM124.021 90.069H134.133C134.133 88.496 134.452 87.0353 135.088 85.687C135.725 84.3386 136.53 83.1776 137.504 82.2038H138.066C137.991 82.6907 137.935 83.1963 137.897 83.7207C137.86 84.1701 137.822 84.657 137.785 85.1813C137.785 85.7057 137.785 86.2113 137.785 86.6982C137.785 87.4098 137.785 88.0465 137.785 88.6083C137.822 89.1327 137.86 89.6008 137.897 90.0128C137.935 90.4623 137.991 90.8555 138.066 91.1926H115.875V90.6308L119.246 89.7881V53.2712L115.875 52.4285V51.8667H127.392V52.4285L124.021 53.2712V90.069ZM152.681 89.7881L156.052 90.6308V91.1926H144.535V90.6308L147.906 89.7881V52.9903H142.007C142.007 54.5633 141.689 56.024 141.052 57.3723C140.415 58.7206 139.61 59.8817 138.636 60.8555H138.075C138.112 60.3686 138.149 59.8629 138.187 59.3386C138.224 58.8892 138.262 58.421 138.299 57.9341C138.337 57.4098 138.355 56.8854 138.355 56.3611C138.355 55.6495 138.337 55.0315 138.299 54.5071C138.262 53.9453 138.224 53.4584 138.187 53.0465C138.149 52.597 138.112 52.2038 138.075 51.8667H162.513C162.438 52.2038 162.382 52.597 162.344 53.0465C162.307 53.4584 162.269 53.9453 162.232 54.5071C162.232 55.0315 162.232 55.6495 162.232 56.3611C162.232 56.8854 162.232 57.4098 162.232 57.9341C162.269 58.421 162.307 58.8892 162.344 59.3386C162.382 59.8629 162.438 60.3686 162.513 60.8555H161.951C160.977 59.8817 160.172 58.7206 159.535 57.3723C158.899 56.024 158.58 54.5633 158.58 52.9903H152.681V89.7881ZM174.879 70.9678V89.7881L178.25 90.6308V91.1926H166.733V90.6308L170.104 89.7881V53.2712L166.733 52.4285V51.8667H178.25V52.4285L174.879 53.2712V69.8442H186.396V53.2712L183.025 52.4285V51.8667H194.542V52.4285L191.171 53.2712V89.7881L194.542 90.6308V91.1926H183.025V90.6308L186.396 89.7881V70.9678H174.879Z" />
</svg>
