<svg width="90" height="90" viewBox="0 0 90 90" fill="currentColor" xmlns="http://www.w3.org/2000/svg">
<path id="Vector" d="M89.48 44.8475L76.7147 14.0294C76.6659 13.9104 76.594 13.8023 76.503 13.7114C76.4121 13.6205 76.304 13.5485 76.185 13.4998L45.3681 0.736181C45.2518 0.686504 45.1265 0.660889 45 0.660889C44.8735 0.660889 44.7482 0.686504 44.6319 0.736181L13.815 13.4998C13.696 13.5485 13.5879 13.6205 13.497 13.7114C13.406 13.8023 13.3341 13.9104 13.2853 14.0294L0.520031 44.8475C0.424882 45.0836 0.424882 45.3475 0.520031 45.5836L13.2853 76.3964C13.3333 76.5159 13.405 76.6244 13.496 76.7154C13.587 76.8064 13.6956 76.8781 13.815 76.926L44.6319 89.6896C44.7485 89.7384 44.8736 89.7636 45 89.7636C45.1264 89.7636 45.2515 89.7384 45.3681 89.6896L76.185 76.926C76.3045 76.8781 76.413 76.8064 76.504 76.7154C76.595 76.6244 76.6667 76.5159 76.7147 76.3964L89.48 45.5836C89.5751 45.3475 89.5751 45.0836 89.48 44.8475ZM74.0557 72.9168L63.2978 62.1604L55.8823 54.7459H69.8659L70.0354 55.4715L74.0557 72.9168ZM17.3162 16.169L31.8401 19.5268L35.5108 20.3794V34.3612L24.4457 23.2976L17.3162 16.169ZM15.9549 72.901L19.9964 55.4238L20.1659 54.6982H34.1495L26.7339 62.1128L15.9549 72.901ZM37.4335 37.6448H52.5771V52.7863H37.4335V37.6448ZM52.5771 35.717H37.4335V20.5754H52.5771V35.717ZM37.995 18.6317L45.0079 3.95092L52.0156 18.6317H37.995ZM20.3619 37.6183H35.5108V52.7599H20.3619V37.6183ZM17.3268 58.4161L14.0004 72.795L3.37501 47.1407L18.3067 54.2851L17.3268 58.4161ZM17.3268 74.2409L25.0549 66.5138L35.5214 56.0487V70.0305L31.9248 70.862L17.3268 74.2409ZM35.9451 71.9053L43.0693 86.8191L17.4116 76.1951L25.8282 74.2462L35.9451 71.9053ZM37.4441 69.8292V54.7088H52.5771V69.8504L37.4441 69.8292ZM52.0262 71.757L45.0185 86.4378L38.0056 71.757H52.0262ZM54.5104 52.7651V37.6448H69.6593V52.7916L54.5104 52.7651ZM71.5714 38.2273L86.2542 45.2341L71.5714 52.2408V38.2273ZM69.8447 35.7382H55.8611L63.2766 28.3236L74.0345 17.5672L69.993 35.0444L69.8447 35.7382ZM72.6944 16.1902L64.5373 24.3462L54.4998 34.3612V20.3794L58.1281 19.5374L72.6944 16.1902ZM35.9345 18.5258L27.0306 16.4603L17.401 14.236L43.0587 3.60667L35.9345 18.5258ZM15.9549 17.546L26.7128 28.3024L34.1283 35.717H20.1447L19.9752 34.9967L15.9549 17.546ZM18.4391 38.2273V52.2408L3.75638 45.2341L18.4391 38.2273ZM64.9716 74.4686L72.6096 76.2375L46.9519 86.8615L54.0761 71.9477L64.9716 74.4686ZM54.4998 70.0728V56.0911L64.2142 65.7671L72.6891 74.2409L58.0646 70.8567L54.4998 70.0728ZM72.6838 58.4585L71.7198 54.3063L86.6356 47.1619L76.0102 72.8162L72.6838 58.4585ZM86.6356 43.2639L85.0465 42.5066L71.7145 36.1513L72.6785 31.9938L76.0049 17.6202L79.3578 25.7073L86.6356 43.2639ZM72.6096 14.2148L63.4779 16.3332L54.0761 18.5099L46.9519 3.59078L72.6096 14.2148ZM14.0004 17.6149L17.3268 31.9885L18.2908 36.146L4.95876 42.5013L3.36972 43.2586L10.6422 25.6967L14.0004 17.6149Z" />
</svg>
