<svg xmlns="http://www.w3.org/2000/svg" width="200" height="20" viewBox="0 0 200 20" fill="none">
  <path fill-rule="evenodd" clip-rule="evenodd" d="M16.0509 3.43662L18.7374 9.92324C18.7574 9.97295 18.7574 10.0285 18.7374 10.0782L16.0509 16.5637C16.0408 16.5888 16.0257 16.6117 16.0066 16.6308C15.9874 16.65 15.9646 16.6651 15.9394 16.6752L9.45393 19.3617C9.4294 19.3719 9.40306 19.3772 9.37646 19.3772C9.34986 19.3772 9.32353 19.3719 9.29899 19.3617L2.81348 16.6752C2.78834 16.6651 2.7655 16.65 2.74634 16.6308C2.72718 16.6117 2.7121 16.5888 2.70201 16.5637L0.0155065 10.0782C-0.00451778 10.0285 -0.00451778 9.97295 0.0155065 9.92324L2.70201 3.43662C2.71227 3.41158 2.7274 3.38882 2.74654 3.36968C2.76568 3.35055 2.78844 3.33541 2.81348 3.32515L9.29899 0.63865C9.32348 0.628194 9.34983 0.622803 9.37646 0.622803C9.40309 0.622803 9.42944 0.628194 9.45393 0.63865L15.9394 3.32515C15.9645 3.33541 15.9872 3.35055 16.0064 3.36968C16.0255 3.38882 16.0407 3.41158 16.0509 3.43662ZM13.2273 13.5673L15.4913 15.8313L14.6452 12.1594L14.6096 12.0067H11.6667L13.2273 13.5673ZM6.60691 4.59372L3.55032 3.88698L5.05075 5.3874L7.37942 7.71608V4.77319L6.60691 4.59372ZM4.11437 12.1494L3.26383 15.828L5.53231 13.5573L7.09294 11.9966H4.15004L4.11437 12.1494ZM10.9711 8.40721H7.78407V11.5942H10.9711V8.40721ZM7.78407 8.00145H10.9711V4.81443H7.78407V8.00145ZM9.37813 1.31529L7.90223 4.40533H10.8529L9.37813 1.31529ZM7.37942 8.40164H4.19129V11.5887H7.37942V8.40164ZM2.8525 15.8057L3.55255 12.7792L3.75877 11.9097L0.616346 10.4059L2.8525 15.8057ZM5.17894 14.4836L3.55255 16.11L6.62475 15.3988L7.38165 15.2238V12.2809L5.17894 14.4836ZM8.97014 18.7575L7.47083 15.6184L5.34169 16.1111L3.57038 16.5213L8.97014 18.7575ZM7.7863 11.9989V15.1814L10.9711 15.1859V11.9989H7.7863ZM9.38036 18.6772L10.8552 15.5872H7.90446L9.38036 18.6772ZM11.378 8.40721V11.5898L14.5661 11.5953V8.40721H11.378ZM18.0585 10.0046L14.9685 8.52983V11.4794L18.0585 10.0046ZM11.6622 8.00591H14.6051L14.6363 7.85988L15.4869 4.18127L13.2228 6.44528L11.6622 8.00591ZM13.4881 5.60812L15.2048 3.89143L12.1393 4.59595L11.3757 4.77319V7.71608L13.4881 5.60812ZM5.59474 3.94829L7.4686 4.38303L8.96791 1.24283L3.56815 3.4801L5.59474 3.94829ZM5.52785 6.44082L3.26383 4.17681L4.10991 7.84984L4.14559 8.00145H7.08848L5.52785 6.44082ZM3.78664 11.4794V8.52983L0.696607 10.0046L3.78664 11.4794ZM15.187 16.5303L13.5796 16.1579L11.2866 15.6273L9.78724 18.7664L15.187 16.5303ZM11.3757 12.2898V15.2327L12.1259 15.3977L15.2037 16.11L13.4201 14.3264L11.3757 12.2898ZM14.9997 11.9142L15.2026 12.7881L15.9027 15.8101L18.1388 10.4104L14.9997 11.9142ZM17.8044 9.43053L18.1388 9.58994L16.6072 5.89461L15.9015 4.19241L15.2015 7.21779L14.9986 8.09286L17.8044 9.43053ZM13.2652 3.92153L15.187 3.47564L9.78724 1.23949L11.2866 4.37969L13.2652 3.92153ZM3.55255 7.21668L2.8525 4.1913L2.14576 5.89238L0.615232 9.58882L0.949652 9.42942L3.75543 8.09174L3.55255 7.21668ZM82.3044 8.97906C80.7148 8.27901 79.2946 7.49535 79.2946 5.69506C79.2946 3.93602 80.503 2.89709 81.9231 2.8982C84.0634 2.8982 85.1436 4.80551 85.9484 6.90343H85.9919L85.8214 2.41106L85.8204 2.41242C85.5877 2.72967 85.3546 3.04758 84.7835 3.04758C84.541 3.04758 84.2686 2.94828 83.9391 2.82813C83.4343 2.64407 82.7952 2.41106 81.9231 2.41106C79.6558 2.41106 77.7072 3.95831 77.7072 6.39511C77.7072 8.9367 79.6558 9.80507 81.5207 10.6311L81.5301 10.6353C83.2635 11.4186 84.953 12.182 84.953 14.2127C84.953 16.0977 83.7246 17.179 82.1138 17.179C80.3124 17.179 78.5968 15.5471 77.579 12.7714H77.5367L77.792 17.6662C78.1308 17.2426 78.4274 16.946 78.9357 16.946C79.2319 16.946 79.5618 17.066 79.9522 17.2081C80.5182 17.414 81.2113 17.6662 82.1138 17.6662C84.3599 17.6662 86.6061 16.3095 86.6061 13.5338C86.6061 10.8216 84.5176 9.92717 82.5758 9.09558C82.4849 9.05666 82.3944 9.01788 82.3044 8.97906ZM73.5211 2.62173C73.8812 2.62173 74.2836 2.60055 74.5166 2.47347L75.1308 6.09746H75.0884C74.0294 4.08425 72.8846 3.13116 70.518 3.13116H68.4V9.65679H70.0521C71.7688 9.65679 72.2983 9.27555 73.0184 7.30471H73.0607V12.1783H73.0184C72.2983 10.2287 71.7688 10.1439 70.0521 10.1439H68.3934V16.9438H70.809C73.1822 16.9438 74.4954 15.9049 75.5756 13.5996H75.6179L75.0461 17.4566H65.3479V17.4142C66.3645 16.9906 66.5552 16.2482 66.5552 14.8503V5.2302C66.5552 3.83232 66.3645 3.09103 65.3479 2.66632V2.62173H73.5211ZM49.1158 2.62195C49.4759 2.62195 49.8783 2.60077 50.1113 2.47369L50.7255 6.09768H50.6876C49.6286 4.08448 48.4849 3.13139 46.1116 3.13139H43.9936V9.65702H45.6468C47.3623 9.65702 47.8918 9.27578 48.6131 7.30494H48.6554V12.1785H48.6131C47.8918 10.2289 47.3623 10.1442 45.6468 10.1442H43.988V16.944H46.4037C48.7769 16.944 50.0901 15.9051 51.1714 13.5998H51.2137L50.6408 17.4568H40.937V17.4144C41.9537 16.9908 42.1443 16.2484 42.1443 14.8506V5.23042C42.1443 3.83255 41.9537 3.09125 40.937 2.66654V2.62195H49.1158ZM33.0756 2.62177C35.9739 2.62177 38.4152 3.63951 38.4152 6.52332C38.4152 9.17192 35.9996 10.2097 33.7333 10.2945C35.8101 10.4639 36.9114 11.4816 37.335 13.0278L37.801 14.8113C38.2469 16.3998 38.8187 16.9516 40.1107 17.4176V17.4599H36.9917C36.5893 17.0575 36.2114 16.1669 35.9327 15.1714L35.4244 13.2853C35.0208 11.718 34.3854 10.4884 32.5205 10.4884H30.9744V14.8537C30.9744 16.2516 31.165 16.994 32.1816 17.4176V17.4599H27.9233V17.4176C28.94 16.994 29.1306 16.2516 29.1306 14.8537V5.23358C29.1306 3.83571 28.94 3.09441 27.9233 2.6697V2.62177H33.0756ZM30.9777 9.95335H32.7613C34.8793 9.95335 36.3842 9.12733 36.3842 6.56345C36.3842 4.23255 35.0699 3.15238 32.7613 3.15238H30.9777V9.95335ZM53.8943 14.8481C53.8943 16.246 53.7037 16.9884 52.687 17.412V17.4533H57.3265C61.12 17.4533 64.5522 15.0165 64.5522 9.86752C64.5522 5.07975 61.2682 2.62177 56.8817 2.62177H52.687V2.66413C53.7037 3.08884 53.8943 3.83013 53.8943 5.22801V14.8481ZM62.5134 9.86863C62.5134 15.0176 60.061 16.9249 57.0512 16.9249H55.738V3.15238H56.7714C60.0766 3.15238 62.5134 5.39744 62.5134 9.86863ZM92.3076 17.412V17.4544H88.0493V17.412C89.0659 16.9884 89.2566 16.246 89.2566 14.8481V5.22801C89.2566 3.83013 89.0659 3.08884 88.0493 2.66413V2.62177H92.3076V2.66413C91.291 3.08884 91.1003 3.83013 91.1003 5.22801V14.8481C91.1003 16.246 91.291 16.9884 92.3076 17.412ZM99.4908 16.9038C96.9704 16.9038 95.4232 14.2552 95.4232 10.2499C95.4232 5.88576 96.9503 2.89716 99.5967 2.90162C101.5 2.90162 103.03 4.85129 103.729 7.26691H103.771L103.602 2.41449C103.369 2.73218 102.967 3.09336 102.395 3.09336C102.127 3.09336 101.818 2.9786 101.454 2.84345C100.934 2.64988 100.301 2.41449 99.5131 2.41449C96.1221 2.41449 93.3041 5.63494 93.3041 10.2332C93.3041 14.5138 95.7654 17.6707 99.1096 17.6707C100.953 17.6707 102.268 16.508 102.649 15.1704L104.237 17.6707H104.28V13.0891C104.28 11.6913 104.428 10.9489 105.255 10.5253V10.4829H101.292V10.5253C102.268 10.9712 102.479 11.6913 102.479 13.0891V13.6822C102.479 15.7378 101.186 16.9038 99.4908 16.9038ZM117.194 5.5457V17.645H117.127L108.32 4.02075V14.5494C108.32 16.1379 108.913 16.9862 109.931 17.4098V17.4521H106.141V17.4098C107.158 16.9862 107.731 16.1379 107.731 14.5282V5.22801C107.731 3.83013 107.54 3.08884 106.522 2.66413V2.62177H109.658L116.63 13.3644V5.50335C116.63 3.91485 116.037 3.06766 115.019 2.66413V2.62177H118.809V2.66413C117.787 3.08884 117.194 3.91485 117.194 5.5457ZM126.054 2.69647C127.072 3.12007 127.263 3.86137 127.263 5.26035V14.8838C127.263 16.2828 127.072 17.0241 126.054 17.4477V17.4901H130.314V17.4477C129.297 17.0241 129.105 16.2828 129.105 14.8838V10.2187H135.801V14.8838C135.801 16.2828 135.611 17.0241 134.593 17.4477V17.4901H138.852V17.4477C137.836 17.0241 137.645 16.2828 137.645 14.8838V5.26035C137.645 3.86137 137.836 3.12007 138.852 2.69647V2.65411H134.593V2.69647C135.611 3.12007 135.801 3.86137 135.801 5.26035V9.66689H129.105V5.26035C129.105 3.86137 129.297 3.12007 130.314 2.69647V2.65411H126.054V2.69647ZM148.561 2.65406C148.921 2.65406 149.324 2.63288 149.557 2.5058L150.171 6.12867H150.122C149.063 4.11547 147.919 3.16237 145.551 3.16237H143.433V9.68801H145.085C146.802 9.68801 147.332 9.30677 148.053 7.33704H148.095V12.2084H148.053C147.332 10.2599 146.802 10.1751 145.085 10.1751H143.433V16.975H145.849C148.222 16.975 149.535 15.9372 150.617 13.6308H150.659L150.086 17.4867H140.382V17.4477C141.399 17.0241 141.59 16.2828 141.59 14.8838V5.2603C141.59 3.86131 141.399 3.12001 140.382 2.69642V2.65406H148.561ZM151.449 17.4855H154.775L154.774 17.4476C154.459 17.3215 154.19 17.1014 154.004 16.8172C153.819 16.533 153.725 16.1984 153.736 15.8591C153.744 15.4075 153.837 14.9615 154.012 14.5448L154.774 12.4893H159.817L160.792 15.0531C160.977 15.5626 161.089 15.9906 161.089 16.3251C161.089 16.8334 160.792 17.1934 160.156 17.4476V17.49H164.353V17.4476C163.506 17.0028 163.273 16.5157 162.742 15.1167L157.933 2.44666H157.87L153.356 14.6084C152.827 16.0497 152.318 17.0017 151.449 17.4476V17.4855ZM159.606 11.9553H154.967L157.258 5.74292L159.606 11.9553ZM169.803 2.65411V2.69647C168.786 3.12007 168.595 3.86137 168.595 5.26035V16.9561H170.863C173.235 16.9561 174.318 15.8336 175.502 13.2909H175.545L174.973 17.4856H165.544V17.4477C166.561 17.0241 166.752 16.2828 166.752 14.8838V5.26035C166.752 3.86137 166.561 3.12007 165.544 2.69647V2.65411H169.803ZM185.7 2.50575C185.467 2.63283 185.063 2.65401 184.703 2.65401L175.275 2.65513C174.915 2.65513 174.511 2.63395 174.278 2.50687L173.77 6.85432H173.812C175.021 4.31273 175.677 3.12554 178.072 3.12554H179.067V15.0532C179.067 16.4521 178.771 17.024 177.754 17.4476V17.4888H182.224V17.4465C181.208 17.0229 180.911 16.451 180.911 15.052V3.12443H181.907C184.301 3.12443 184.958 4.31162 186.166 6.8532H186.208L185.7 2.50575ZM188.41 5.26035C188.41 3.86137 188.219 3.12007 187.202 2.69647V2.65411H191.461V2.69647C190.444 3.12007 190.253 3.86137 190.253 5.26035V9.66689H196.949V5.26035C196.949 3.86137 196.758 3.12007 195.742 2.69647V2.65411H200V2.69647C198.983 3.12007 198.793 3.86137 198.793 5.26035V14.8838C198.793 16.2828 198.983 17.0241 200 17.4477V17.4901H195.742V17.4477C196.758 17.0241 196.949 16.2828 196.949 14.8838V10.2187H190.253V14.8838C190.253 16.2828 190.444 17.0241 191.461 17.4477V17.4901H187.202V17.4477C188.219 17.0241 188.41 16.2828 188.41 14.8838V5.26035Z" fill="white"/>
</svg>
