<svg width="18" height="22" viewBox="0 0 18 22" fill="none" xmlns="http://www.w3.org/2000/svg">
<path d="M2.63803 20.673L2.18404 21.564L2.63803 20.673ZM1.32698 19.362L0.435974 19.816L1.32698 19.362ZM16.782 19.908L15.891 19.454L16.782 19.908ZM15.908 20.782L15.454 19.891L15.908 20.782ZM15.908 1.21799L15.454 2.10899L15.908 1.21799ZM16.782 2.09202L15.891 2.54601L16.782 2.09202ZM2.63803 1.32698L2.18404 0.435974L2.63803 1.32698ZM1.32698 2.63803L0.435974 2.18404L1.32698 2.63803ZM17 15H18C18 14.4477 17.5523 14 17 14V15ZM16 18C16 18.5523 16.4477 19 17 19C17.5523 19 18 18.5523 18 18H16ZM0 18C0 18.5523 0.447715 19 1 19C1.55228 19 2 18.5523 2 18H0ZM5.8 2H13.8V0H5.8V2ZM16 4.2V17.8H18V4.2H16ZM13.8 20H5.8V22H13.8V20ZM2 16.2V5.8H0V16.2H2ZM5.8 20C4.94342 20 4.36113 19.9992 3.91104 19.9624C3.47262 19.9266 3.24842 19.8617 3.09202 19.782L2.18404 21.564C2.66937 21.8113 3.18608 21.9099 3.74817 21.9558C4.2986 22.0008 4.97642 22 5.8 22V20ZM0 16.2C0 17.0236 -0.000777721 17.7014 0.0441936 18.2518C0.0901188 18.8139 0.188683 19.3306 0.435974 19.816L2.21799 18.908C2.1383 18.7516 2.07337 18.5274 2.03755 18.089C2.00078 17.6389 2 17.0566 2 16.2H0ZM3.09202 19.782C2.7157 19.5903 2.40973 19.2843 2.21799 18.908L0.435974 19.816C0.819467 20.5686 1.43139 21.1805 2.18404 21.564L3.09202 19.782ZM16 17.8C16 18.3766 15.9992 18.7488 15.9761 19.0322C15.9539 19.3038 15.9162 19.4045 15.891 19.454L17.673 20.362C17.8658 19.9836 17.9371 19.5904 17.9694 19.195C18.0008 18.8114 18 18.3436 18 17.8H16ZM13.8 22C14.3436 22 14.8114 22.0008 15.195 21.9694C15.5904 21.9371 15.9836 21.8658 16.362 21.673L15.454 19.891C15.4045 19.9162 15.3038 19.9539 15.0322 19.9761C14.7488 19.9992 14.3766 20 13.8 20V22ZM15.891 19.454C15.7951 19.6422 15.6422 19.7951 15.454 19.891L16.362 21.673C16.9265 21.3854 17.3854 20.9265 17.673 20.362L15.891 19.454ZM13.8 2C14.3766 2 14.7488 2.00078 15.0322 2.02393C15.3038 2.04612 15.4045 2.0838 15.454 2.10899L16.362 0.32698C15.9836 0.134186 15.5904 0.0628704 15.195 0.0305694C14.8114 -0.000777721 14.3436 0 13.8 0V2ZM18 4.2C18 3.65645 18.0008 3.18864 17.9694 2.80497C17.9371 2.40963 17.8658 2.01641 17.673 1.63803L15.891 2.54601C15.9162 2.59545 15.9539 2.69617 15.9761 2.96784C15.9992 3.25117 16 3.62345 16 4.2H18ZM15.454 2.10899C15.6422 2.20487 15.7951 2.35785 15.891 2.54601L17.673 1.63803C17.3854 1.07354 16.9265 0.614601 16.362 0.32698L15.454 2.10899ZM5.8 0C4.97642 0 4.2986 -0.000777721 3.74817 0.0441936C3.18608 0.0901188 2.66937 0.188683 2.18404 0.435974L3.09202 2.21799C3.24842 2.1383 3.47262 2.07337 3.91104 2.03755C4.36113 2.00078 4.94342 2 5.8 2V0ZM2 5.8C2 4.94342 2.00078 4.36113 2.03755 3.91104C2.07337 3.47262 2.1383 3.24842 2.21799 3.09202L0.435974 2.18404C0.188683 2.66937 0.0901188 3.18608 0.0441936 3.74817C-0.000777721 4.2986 0 4.97642 0 5.8H2ZM2.18404 0.435974C1.43139 0.819467 0.819467 1.43139 0.435974 2.18404L2.21799 3.09202C2.40973 2.71569 2.71569 2.40973 3.09202 2.21799L2.18404 0.435974ZM4 16H17V14H4V16ZM16 15V18H18V15H16ZM4 14C1.79086 14 0 15.7909 0 18H2C2 16.8954 2.89543 16 4 16V14Z" fill="#344054"/>
</svg>
